<svg xmlns="http://www.w3.org/2000/svg" width="44.605" height="44.605" viewBox="0 0 44.605 44.605">
  <path id="Path_40" data-name="Path 40" d="M22.3,3.965a68.385,68.385,0,0,1,8.921.248,11.494,11.494,0,0,1,4.213.743,8.7,8.7,0,0,1,4.213,4.213,11.494,11.494,0,0,1,.743,4.213c0,2.23.248,2.974.248,8.921a68.382,68.382,0,0,1-.248,8.921,11.494,11.494,0,0,1-.743,4.213,8.7,8.7,0,0,1-4.213,4.213,11.494,11.494,0,0,1-4.213.743c-2.23,0-2.974.248-8.921.248a68.382,68.382,0,0,1-8.921-.248,11.494,11.494,0,0,1-4.213-.743,8.7,8.7,0,0,1-4.213-4.213,11.494,11.494,0,0,1-.743-4.213c0-2.23-.248-2.974-.248-8.921a68.385,68.385,0,0,1,.248-8.921,11.494,11.494,0,0,1,.743-4.213A8.9,8.9,0,0,1,6.691,6.691,4.19,4.19,0,0,1,9.169,4.956a11.494,11.494,0,0,1,4.213-.743A68.385,68.385,0,0,1,22.3,3.965M22.3,0a73.22,73.22,0,0,0-9.169.248,15.3,15.3,0,0,0-5.452.991A9.7,9.7,0,0,0,3.717,3.717,9.7,9.7,0,0,0,1.239,7.682a11.291,11.291,0,0,0-.991,5.452A73.22,73.22,0,0,0,0,22.3a73.22,73.22,0,0,0,.248,9.169,15.3,15.3,0,0,0,.991,5.452,9.7,9.7,0,0,0,2.478,3.965,9.7,9.7,0,0,0,3.965,2.478,15.3,15.3,0,0,0,5.452.991,73.219,73.219,0,0,0,9.169.248,73.219,73.219,0,0,0,9.169-.248,15.3,15.3,0,0,0,5.452-.991,10.4,10.4,0,0,0,6.443-6.443,15.3,15.3,0,0,0,.991-5.452c0-2.478.248-3.222.248-9.169a73.219,73.219,0,0,0-.248-9.169,15.3,15.3,0,0,0-.991-5.452,9.7,9.7,0,0,0-2.478-3.965,9.7,9.7,0,0,0-3.965-2.478A15.3,15.3,0,0,0,31.472.248,73.22,73.22,0,0,0,22.3,0m0,10.9A11.216,11.216,0,0,0,10.9,22.3,11.4,11.4,0,1,0,22.3,10.9m0,18.833A7.3,7.3,0,0,1,14.868,22.3,7.3,7.3,0,0,1,22.3,14.868,7.3,7.3,0,0,1,29.737,22.3,7.3,7.3,0,0,1,22.3,29.737M34.2,7.682a2.726,2.726,0,1,0,2.726,2.726A2.75,2.75,0,0,0,34.2,7.682" fill="#1b0760" fill-rule="evenodd"/>
</svg>
