<svg xmlns="http://www.w3.org/2000/svg" width="44.605" height="36.18" viewBox="0 0 44.605 36.18">
  <path id="Path_39" data-name="Path 39" d="M52.125,38.18c16.851,0,26.02-13.877,26.02-26.02V10.921a20.143,20.143,0,0,0,4.461-4.708A20.571,20.571,0,0,1,77.4,7.7a9.641,9.641,0,0,0,3.965-4.956,22.73,22.73,0,0,1-5.7,2.23A8.85,8.85,0,0,0,68.976,2a9.31,9.31,0,0,0-9.169,9.169,4.831,4.831,0,0,0,.248,1.982A25.621,25.621,0,0,1,41.222,3.487,9.49,9.49,0,0,0,39.982,8.2a9.846,9.846,0,0,0,3.965,7.682,8.354,8.354,0,0,1-4.213-1.239h0a9.057,9.057,0,0,0,7.434,8.921,7.64,7.64,0,0,1-2.478.248,4.217,4.217,0,0,1-1.735-.248A9.388,9.388,0,0,0,51.629,30a18.71,18.71,0,0,1-11.4,3.965A6.861,6.861,0,0,1,38,33.719,23.39,23.39,0,0,0,52.125,38.18" transform="translate(-38 -2)" fill="#1b0760" fill-rule="evenodd"/>
</svg>
